<svg width="500" height="500" viewBox="0 0 500 500" fill="none" xmlns="http://www.w3.org/2000/svg">
<g clip-path="url(#clip0_51_629)">
<path opacity="0.1" d="M183.827 230.772C179.675 231.688 176.028 232.987 172.83 234.462C170.095 233.577 165.953 230.879 161.559 227.508C165.538 225.822 169.402 222.448 171.629 219.576C175.037 218.813 178.008 216.736 178.598 212.208C178.598 212.208 163.044 203.977 159.322 199.814C155.6 195.65 134.337 173.482 127.886 173.482C107.949 173.482 67.426 204.506 63.094 212.842C58.7619 221.177 52.2552 241.272 46.8993 262.773C41.5433 284.274 40.2851 306.556 36.8035 317.477C33.3218 328.398 28.4648 340.712 16.9557 367.371C10.5802 382.139 -2.35732 416.846 -12.6321 444.874V500.236H52.0849H65.1114C69.4868 465.55 82.6749 364.598 90.1155 346.888C97.7253 328.774 105.255 324.805 113.573 320.547C115.105 319.763 116.664 318.968 118.255 318.074C118.568 317.898 118.894 317.713 119.233 317.519C119.402 317.422 119.582 317.316 119.756 317.215C119.93 317.114 120.098 317.017 120.277 316.913C120.551 316.752 120.839 316.581 121.126 316.411C121.21 316.361 121.289 316.315 121.374 316.264C121.703 316.067 122.044 315.861 122.389 315.651C122.44 315.621 122.489 315.592 122.54 315.56C122.919 315.329 123.31 315.089 123.707 314.843C123.723 314.833 123.738 314.823 123.754 314.813C128.343 311.964 134.012 308.14 139.76 303.595C148.711 296.516 157.846 287.691 163.363 278.067C172.069 262.881 178.53 265.637 182.653 258.373C182.653 258.373 182.656 258.372 182.657 258.37C187.253 253.606 188.309 249.424 198.474 243.515C203.953 240.33 197.466 227.766 183.827 230.772ZM142.268 255.187C142.268 255.187 136.438 255.54 132.325 258.506C132.325 258.506 126.621 255.588 121.494 250.665C121.088 250.275 120.6 249.86 120.066 249.427C126.436 244.206 132.541 237.774 135.963 234.771C142.792 228.779 147.076 243.693 155.517 247.864C155.348 248.094 155.253 248.233 155.253 248.233C155.253 248.233 145.588 249.805 142.268 255.187Z" fill="black"/>
<path d="M168.1 223.045C165.603 223.045 160.586 219.812 155.191 215.528C162.902 212.147 170.2 202.199 165.93 202.199C160.25 202.199 141.526 185.469 134.988 177.689C128.449 169.908 100.31 186.571 93.2598 196.912C93.2598 196.912 84.5827 219.068 93.2598 224.576C93.262 224.577 93.2641 224.578 93.2674 224.579C91.43 231.57 89.8801 241.898 95.4291 245.42C104.106 250.928 122.545 229.447 129.595 223.044C136.645 216.64 140.984 233.303 149.985 236.978C158.985 240.655 173.779 223.045 168.1 223.045Z" fill="#D89371"/>
<path d="M152.954 186.868C149.232 182.56 127.969 159.617 121.518 159.617C101.581 159.617 61.0581 191.724 56.726 200.351C52.394 208.977 45.8873 229.773 40.5313 252.024C35.1754 274.275 33.9172 297.335 30.4355 308.638C26.9539 319.94 22.0969 332.683 10.5878 360.274C4.21338 375.555 -8.72524 411.473 -19 440.48V497.773H58.7424C63.1178 461.877 76.3059 357.402 83.7465 339.075C91.3563 320.328 98.8858 316.221 107.204 311.815C113.326 287.665 113.326 275.801 115.126 239.494C111.636 236.025 102.553 230.772 101.582 225.679C99.1852 213.105 93.2598 202.2 118.206 187.301C118.206 187.301 136.397 199.05 141.91 198.407C141.91 198.407 150.776 204.801 154.905 206.488C159.033 208.174 170.979 209.626 172.23 199.695C172.23 199.695 156.675 191.177 152.954 186.868Z" fill="#EDB08E"/>
<path opacity="0.1" d="M354.632 396.967H149.686C141.568 396.967 134.987 390.284 134.987 382.038V73.8324C134.987 65.5869 141.567 58.9036 149.686 58.9036H354.631C362.748 58.9036 369.33 65.5869 369.33 73.8324V382.039C369.33 390.284 362.75 396.967 354.632 396.967Z" fill="black"/>
<path d="M354.632 390.454H149.686C141.568 390.454 134.987 383.771 134.987 375.526V67.3198C134.987 59.0744 141.567 52.391 149.686 52.391H354.631C362.748 52.391 369.33 59.0744 369.33 67.3198V375.527C369.33 383.771 362.75 390.454 354.632 390.454Z" fill="#00A8A8"/>
<path d="M355.762 64.6011H148.556V378.245H355.762V64.6011Z" fill="white"/>
<path d="M335.134 121.027H209.316V131.603H335.134V121.027Z" fill="#B3B3B3"/>
<path d="M335.134 140.25H209.316V150.826H335.134V140.25Z" fill="#D6D6D6"/>
<path d="M335.134 159.472H168.1V170.048H335.134V159.472Z" fill="#D6D6D6"/>
<path d="M209.412 64.6011C209.477 67.5534 211.843 69.9284 214.765 69.9284H289.555C292.477 69.9284 294.843 67.5523 294.908 64.6011H209.412Z" fill="#D6D6D6"/>
<path d="M289.554 37.743H263.721C263.721 31.2579 258.544 26 252.159 26C245.774 26 240.597 31.2579 240.597 37.743H214.764C211.802 37.743 209.4 40.182 209.4 43.1904V61.5904C209.4 64.5988 211.802 67.0378 214.764 67.0378H289.554C292.516 67.0378 294.917 64.5988 294.917 61.5904V43.1904C294.917 40.182 292.516 37.743 289.554 37.743ZM252.159 42.3576C249.649 42.3576 247.615 40.291 247.615 37.743C247.615 35.1939 249.65 33.1284 252.159 33.1284C254.668 33.1284 256.702 35.195 256.702 37.743C256.702 40.291 254.669 42.3576 252.159 42.3576Z" fill="#D6D6D6"/>
<path d="M209.4 56.7246V61.5904C209.4 64.5988 211.802 67.0378 214.764 67.0378H289.554C292.516 67.0378 294.917 64.5988 294.917 61.5904V56.7246H209.4Z" fill="#CCCCCC"/>
<path d="M194.502 126.535V145.317H173.523V126.535H194.502ZM199.925 121.027H168.1V150.825H199.925V121.027Z" fill="#D6D6D6"/>
<path d="M335.134 187.824H209.316V198.401H335.134V187.824Z" fill="#B3B3B3"/>
<path d="M335.134 207.046H209.316V217.623H335.134V207.046Z" fill="#D6D6D6"/>
<path d="M335.134 226.269H168.1V236.845H335.134V226.269Z" fill="#D6D6D6"/>
<path d="M242.397 309.724H168.1V320.3H242.397V309.724Z" fill="#D6D6D6"/>
<path d="M208.773 328.278H168.1V338.855H208.773V328.278Z" fill="#D6D6D6"/>
<path d="M335.445 309.724H261.147V320.3H335.445V309.724Z" fill="#D6D6D6"/>
<path d="M301.821 328.278H261.147V338.855H301.821V328.278Z" fill="#D6D6D6"/>
<path d="M194.502 193.332V212.115H173.523V193.332H194.502ZM199.925 187.824H168.1V217.623H199.925V187.824Z" fill="#D6D6D6"/>
<path d="M335.134 254.621H168.1V265.021H335.134V254.621Z" fill="#B3B3B3"/>
<path d="M237.201 277.914V296.696H173.523V277.914H237.201ZM242.624 272.406H168.1V302.204H242.624V272.406Z" fill="#D6D6D6"/>
<path d="M329.71 277.914V296.696H266.033V277.914H329.71ZM335.134 272.406H260.609V302.204H335.134V272.406Z" fill="#D6D6D6"/>
<path d="M202.708 122.077L183.948 141.13L174.165 131.193" stroke="#39B54A" stroke-width="5.7917" stroke-miterlimit="10" stroke-linecap="round" stroke-linejoin="round"/>
<path d="M202.708 187.824L183.948 206.877L174.165 196.94" stroke="#39B54A" stroke-width="5.7917" stroke-miterlimit="10" stroke-linecap="round" stroke-linejoin="round"/>
<path d="M168.745 99.6809V89.7024H172.117C172.896 89.7024 173.536 89.8355 174.036 90.1019C174.537 90.365 174.907 90.7272 175.147 91.1884C175.388 91.6497 175.508 92.1743 175.508 92.7622C175.508 93.3501 175.388 93.8715 175.147 94.3262C174.907 94.781 174.538 95.1383 174.041 95.3981C173.544 95.6547 172.909 95.783 172.136 95.783H169.408V94.6916H172.097C172.63 94.6916 173.059 94.6137 173.383 94.4578C173.711 94.3018 173.949 94.081 174.095 93.7951C174.244 93.506 174.319 93.1617 174.319 92.7622C174.319 92.3627 174.244 92.0135 174.095 91.7146C173.945 91.4158 173.707 91.1852 173.379 91.0228C173.05 90.8571 172.617 90.7743 172.078 90.7743H169.953V99.6809H168.745ZM173.442 95.1984L175.898 99.6809H174.494L172.078 95.1984H173.442ZM177.521 99.6809V89.7024H183.543V90.7743H178.73V94.1459H183.232V95.2178H178.73V98.609H183.621V99.6809H177.521ZM192.543 92.8207C192.435 92.4926 192.294 92.1986 192.119 91.9388C191.947 91.6757 191.74 91.4515 191.5 91.2664C191.263 91.0812 190.993 90.9399 190.691 90.8425C190.389 90.745 190.058 90.6963 189.697 90.6963C189.106 90.6963 188.568 90.849 188.084 91.1543C187.6 91.4597 187.216 91.9095 186.93 92.504C186.644 93.0984 186.501 93.8276 186.501 94.6916C186.501 95.5557 186.646 96.2849 186.935 96.8793C187.224 97.4737 187.615 97.9236 188.109 98.229C188.603 98.5343 189.158 98.687 189.775 98.687C190.347 98.687 190.85 98.5651 191.286 98.3215C191.724 98.0747 192.065 97.7271 192.309 97.2788C192.556 96.8273 192.679 96.2963 192.679 95.6856L193.049 95.7635H190.048V94.6916H193.848V95.7635C193.848 96.5854 193.673 97.3 193.322 97.9074C192.975 98.5148 192.494 98.9858 191.88 99.3204C191.269 99.6517 190.568 99.8173 189.775 99.8173C188.892 99.8173 188.115 99.6094 187.446 99.1937C186.78 98.7779 186.261 98.1867 185.887 97.4201C185.517 96.6536 185.332 95.7441 185.332 94.6916C185.332 93.9023 185.437 93.1926 185.648 92.5624C185.863 91.929 186.165 91.3898 186.555 90.9448C186.944 90.4998 187.406 90.1587 187.938 89.9216C188.471 89.6845 189.057 89.5659 189.697 89.5659C190.223 89.5659 190.714 89.6455 191.169 89.8047C191.627 89.9606 192.034 90.1831 192.392 90.4722C192.752 90.758 193.053 91.1007 193.293 91.5003C193.533 91.8965 193.699 92.3367 193.79 92.8207H192.543ZM197.126 89.7024V99.6809H195.918V89.7024H197.126ZM205.006 92.197C204.948 91.7033 204.711 91.32 204.295 91.0471C203.879 90.7743 203.369 90.6379 202.765 90.6379C202.323 90.6379 201.937 90.7093 201.605 90.8522C201.277 90.9952 201.021 91.1917 200.835 91.4418C200.653 91.6919 200.563 91.9761 200.563 92.2944C200.563 92.5608 200.626 92.7898 200.753 92.9814C200.882 93.1698 201.048 93.3274 201.25 93.4541C201.451 93.5775 201.662 93.6798 201.883 93.761C202.104 93.839 202.307 93.9023 202.492 93.951L203.505 94.2239C203.765 94.2921 204.054 94.3863 204.373 94.5065C204.694 94.6267 205.001 94.7907 205.294 94.9986C205.589 95.2032 205.833 95.4663 206.024 95.7879C206.216 96.1095 206.312 96.5041 206.312 96.9719C206.312 97.5111 206.171 97.9983 205.888 98.4336C205.609 98.8689 205.199 99.2148 204.66 99.4714C204.124 99.728 203.473 99.8563 202.706 99.8563C201.992 99.8563 201.373 99.741 200.85 99.5104C200.33 99.2798 199.921 98.9582 199.622 98.5457C199.327 98.1331 199.159 97.654 199.12 97.1083H200.368C200.4 97.4851 200.527 97.7969 200.748 98.0438C200.972 98.2874 201.254 98.4693 201.595 98.5895C201.94 98.7064 202.31 98.7649 202.706 98.7649C203.168 98.7649 203.582 98.6902 203.949 98.5408C204.316 98.3881 204.607 98.177 204.821 97.9074C205.035 97.6345 205.143 97.3162 205.143 96.9524C205.143 96.6211 205.05 96.3515 204.865 96.1436C204.68 95.9357 204.436 95.7668 204.134 95.6369C203.832 95.5069 203.505 95.3933 203.155 95.2958L201.927 94.945C201.147 94.7209 200.53 94.4009 200.075 93.9851C199.621 93.5694 199.393 93.0253 199.393 92.3529C199.393 91.7942 199.544 91.307 199.846 90.8912C200.152 90.4722 200.561 90.1474 201.074 89.9167C201.591 89.6829 202.167 89.5659 202.804 89.5659C203.447 89.5659 204.019 89.6812 204.519 89.9119C205.019 90.1392 205.415 90.4511 205.708 90.8474C206.003 91.2436 206.159 91.6935 206.175 92.197H205.006ZM207.753 90.7743V89.7024H215.237V90.7743H212.099V99.6809H210.891V90.7743H207.753ZM217.102 99.6809V89.7024H220.473C221.253 89.7024 221.893 89.8355 222.393 90.1019C222.893 90.365 223.264 90.7272 223.504 91.1884C223.744 91.6497 223.864 92.1743 223.864 92.7622C223.864 93.3501 223.744 93.8715 223.504 94.3262C223.264 94.781 222.895 95.1383 222.398 95.3981C221.901 95.6547 221.266 95.783 220.493 95.783H217.764V94.6916H220.454C220.987 94.6916 221.415 94.6137 221.74 94.4578C222.068 94.3018 222.305 94.081 222.452 93.7951C222.601 93.506 222.676 93.1617 222.676 92.7622C222.676 92.3627 222.601 92.0135 222.452 91.7146C222.302 91.4158 222.063 91.1852 221.735 91.0228C221.407 90.8571 220.974 90.7743 220.434 90.7743H218.31V99.6809H217.102ZM221.799 95.1984L224.254 99.6809H222.851L220.434 95.1984H221.799ZM226.287 99.6809H225.02L228.684 89.7024H229.932L233.596 99.6809H232.329L229.347 91.281H229.269L226.287 99.6809ZM226.755 95.783H231.861V96.855H226.755V95.783ZM233.439 90.7743V89.7024H240.923V90.7743H237.785V99.6809H236.576V90.7743H233.439ZM243.996 89.7024V99.6809H242.787V89.7024H243.996ZM254.838 94.6916C254.838 95.7441 254.648 96.6536 254.268 97.4201C253.888 98.1867 253.366 98.7779 252.704 99.1937C252.041 99.6094 251.284 99.8173 250.433 99.8173C249.582 99.8173 248.825 99.6094 248.163 99.1937C247.5 98.7779 246.979 98.1867 246.599 97.4201C246.219 96.6536 246.029 95.7441 246.029 94.6916C246.029 93.6392 246.219 92.7297 246.599 91.9631C246.979 91.1965 247.5 90.6054 248.163 90.1896C248.825 89.7738 249.582 89.5659 250.433 89.5659C251.284 89.5659 252.041 89.7738 252.704 90.1896C253.366 90.6054 253.888 91.1965 254.268 91.9631C254.648 92.7297 254.838 93.6392 254.838 94.6916ZM253.669 94.6916C253.669 93.8276 253.524 93.0984 253.235 92.504C252.949 91.9095 252.561 91.4597 252.07 91.1543C251.583 90.849 251.038 90.6963 250.433 90.6963C249.829 90.6963 249.282 90.849 248.791 91.1543C248.304 91.4597 247.916 91.9095 247.627 92.504C247.341 93.0984 247.198 93.8276 247.198 94.6916C247.198 95.5557 247.341 96.2849 247.627 96.8793C247.916 97.4737 248.304 97.9236 248.791 98.229C249.282 98.5343 249.829 98.687 250.433 98.687C251.038 98.687 251.583 98.5343 252.07 98.229C252.561 97.9236 252.949 97.4737 253.235 96.8793C253.524 96.2849 253.669 95.5557 253.669 94.6916ZM264.782 89.7024V99.6809H263.613L258.175 91.8462H258.078V99.6809H256.87V89.7024H258.039L263.496 97.5566H263.594V89.7024H264.782ZM271.059 99.6809V89.7024H277.042V90.7743H272.268V94.1459H276.594V95.2178H272.268V99.6809H271.059ZM287.531 94.6916C287.531 95.7441 287.341 96.6536 286.961 97.4201C286.581 98.1867 286.06 98.7779 285.397 99.1937C284.735 99.6094 283.978 99.8173 283.127 99.8173C282.276 99.8173 281.519 99.6094 280.856 99.1937C280.194 98.7779 279.672 98.1867 279.292 97.4201C278.912 96.6536 278.722 95.7441 278.722 94.6916C278.722 93.6392 278.912 92.7297 279.292 91.9631C279.672 91.1965 280.194 90.6054 280.856 90.1896C281.519 89.7738 282.276 89.5659 283.127 89.5659C283.978 89.5659 284.735 89.7738 285.397 90.1896C286.06 90.6054 286.581 91.1965 286.961 91.9631C287.341 92.7297 287.531 93.6392 287.531 94.6916ZM286.362 94.6916C286.362 93.8276 286.217 93.0984 285.928 92.504C285.642 91.9095 285.254 91.4597 284.764 91.1543C284.277 90.849 283.731 90.6963 283.127 90.6963C282.523 90.6963 281.975 90.849 281.485 91.1543C280.998 91.4597 280.609 91.9095 280.32 92.504C280.034 93.0984 279.891 93.8276 279.891 94.6916C279.891 95.5557 280.034 96.2849 280.32 96.8793C280.609 97.4737 280.998 97.9236 281.485 98.229C281.975 98.5343 282.523 98.687 283.127 98.687C283.731 98.687 284.277 98.5343 284.764 98.229C285.254 97.9236 285.642 97.4737 285.928 96.8793C286.217 96.2849 286.362 95.5557 286.362 94.6916ZM289.563 99.6809V89.7024H292.935C293.714 89.7024 294.354 89.8355 294.854 90.1019C295.355 90.365 295.725 90.7272 295.965 91.1884C296.206 91.6497 296.326 92.1743 296.326 92.7622C296.326 93.3501 296.206 93.8715 295.965 94.3262C295.725 94.781 295.356 95.1383 294.859 95.3981C294.362 95.6547 293.727 95.783 292.954 95.783H290.226V94.6916H292.915C293.448 94.6916 293.877 94.6137 294.202 94.4578C294.53 94.3018 294.767 94.081 294.913 93.7951C295.062 93.506 295.137 93.1617 295.137 92.7622C295.137 92.3627 295.062 92.0135 294.913 91.7146C294.763 91.4158 294.525 91.1852 294.197 91.0228C293.869 90.8571 293.435 90.7743 292.896 90.7743H290.771V99.6809H289.563ZM294.26 95.1984L296.716 99.6809H295.312L292.896 95.1984H294.26ZM298.339 89.7024H299.782L303.173 97.9853H303.29L306.681 89.7024H308.123V99.6809H306.993V92.0996H306.895L303.777 99.6809H302.685L299.567 92.0996H299.47V99.6809H298.339V89.7024Z" fill="#808080"/>
<path opacity="0.1" d="M183.827 230.772C179.675 231.688 176.028 232.987 172.83 234.462C171.205 233.936 169.078 232.761 166.703 231.194C164.861 232.809 162.978 234.372 161.04 235.862C157.669 238.452 153.777 241.279 149.604 242.921C151.369 244.927 153.299 246.768 155.518 247.864C155.349 248.094 155.254 248.233 155.254 248.233C155.254 248.233 145.589 249.804 142.269 255.186C142.269 255.186 138.341 255.427 134.657 257.153V285.429H135.022V307.191C136.582 306.048 138.165 304.856 139.759 303.595C148.71 296.516 157.845 287.691 163.362 278.067C172.068 262.881 178.529 265.637 182.652 258.373C182.652 258.373 182.655 258.372 182.656 258.37C187.252 253.606 188.308 249.424 198.473 243.515C203.954 240.33 197.466 227.766 183.827 230.772Z" fill="black"/>
<path opacity="0.1" d="M305.828 381.13C305.877 381.171 305.927 381.21 305.975 381.249C306.442 381.633 306.915 382.013 307.392 382.387C307.577 382.533 307.765 382.676 307.953 382.82C308.299 383.088 308.647 383.354 308.997 383.618C309.211 383.777 309.426 383.936 309.64 384.094C309.976 384.34 310.312 384.585 310.65 384.827C310.869 384.984 311.087 385.14 311.308 385.294C311.658 385.541 312.011 385.785 312.365 386.028C312.571 386.169 312.777 386.312 312.985 386.452C313.406 386.736 313.831 387.016 314.257 387.295C314.398 387.387 314.538 387.481 314.679 387.572C315.239 387.936 315.802 388.293 316.368 388.645C316.547 388.758 316.729 388.867 316.909 388.977C317.306 389.222 317.703 389.465 318.101 389.704C318.326 389.84 318.552 389.973 318.777 390.106C319.134 390.318 319.491 390.527 319.849 390.735C320.084 390.872 320.32 391.007 320.555 391.142C320.913 391.346 321.271 391.548 321.629 391.749C321.858 391.876 322.086 392.004 322.314 392.13C322.707 392.346 323.099 392.558 323.49 392.77C323.679 392.872 323.868 392.976 324.056 393.076C324.63 393.382 325.203 393.684 325.773 393.979C325.894 394.041 326.013 394.1 326.132 394.162C326.593 394.399 327.053 394.634 327.511 394.863C327.722 394.969 327.932 395.072 328.142 395.176C328.508 395.357 328.873 395.537 329.237 395.714C329.465 395.826 329.693 395.936 329.921 396.045C330.271 396.213 330.621 396.38 330.969 396.544C331.193 396.65 331.417 396.755 331.639 396.859C332 397.027 332.359 397.193 332.718 397.357C332.917 397.448 333.117 397.541 333.315 397.63C333.779 397.84 334.24 398.046 334.699 398.249C334.786 398.288 334.872 398.327 334.959 398.365C335.499 398.603 336.034 398.835 336.563 399.062C336.738 399.137 336.909 399.209 337.083 399.282C337.443 399.435 337.802 399.588 338.157 399.735C338.355 399.818 338.55 399.898 338.747 399.98C339.073 400.115 339.397 400.247 339.718 400.378C339.916 400.459 340.112 400.538 340.309 400.618C340.628 400.746 340.943 400.872 341.256 400.995C341.439 401.067 341.621 401.14 341.801 401.21C342.158 401.35 342.508 401.486 342.855 401.619C342.98 401.666 343.107 401.717 343.231 401.763C343.699 401.943 344.16 402.116 344.61 402.283C344.71 402.321 344.804 402.355 344.903 402.391C345.25 402.52 345.593 402.646 345.927 402.767C346.087 402.825 346.244 402.88 346.401 402.937C346.67 403.034 346.937 403.129 347.197 403.221C347.356 403.277 347.513 403.332 347.668 403.386C347.92 403.474 348.169 403.56 348.413 403.644C348.56 403.694 348.708 403.745 348.852 403.795C349.113 403.883 349.364 403.967 349.613 404.05C349.721 404.086 349.834 404.124 349.94 404.159C350.294 404.276 350.638 404.388 350.965 404.493C362.202 408.094 371.247 407.818 384.676 427.489C393.2 439.974 406.137 474.331 414.454 497.768H504.029C490.368 476.862 470.923 447.298 460.592 432.476C443.601 408.095 436.2 396.736 430.445 386.485C426.925 380.217 423.302 369.491 418.762 357.417C418.82 357.251 418.875 357.084 418.921 356.909C419.734 353.853 418.378 350.842 415.907 349.998C413.761 344.573 411.413 339.012 408.792 333.568C398.926 313.066 388.238 294.226 382.208 286.76C378.461 282.119 368.042 282.492 358.718 282.308C358.666 282.307 358.614 282.306 358.562 282.305C357.722 282.287 356.894 282.264 356.079 282.233C355.985 282.23 355.888 282.228 355.794 282.223C355.439 282.209 355.09 282.192 354.741 282.173C354.645 282.167 354.548 282.164 354.452 282.158C354.084 282.138 353.723 282.112 353.364 282.087C353.293 282.081 353.218 282.078 353.146 282.073C352.799 282.046 352.461 282.014 352.123 281.982C352.043 281.974 351.96 281.969 351.879 281.96C351.585 281.93 351.301 281.895 351.016 281.86C350.898 281.846 350.775 281.834 350.658 281.818C350.369 281.78 350.088 281.734 349.808 281.689C349.704 281.673 349.595 281.659 349.492 281.642C349.234 281.598 348.987 281.546 348.737 281.495C348.621 281.471 348.499 281.451 348.384 281.427C348.139 281.373 347.906 281.311 347.672 281.251C347.564 281.222 347.449 281.199 347.341 281.169C347.128 281.11 346.927 281.041 346.724 280.975C346.607 280.938 346.482 280.904 346.369 280.864C346.199 280.804 346.043 280.735 345.881 280.669C345.746 280.615 345.604 280.566 345.474 280.507C345.188 280.379 344.917 280.243 344.66 280.095C344.405 279.95 344.139 279.792 343.863 279.626C343.747 279.555 343.622 279.477 343.502 279.404C343.338 279.304 343.177 279.206 343.006 279.099C342.855 279.005 342.696 278.903 342.541 278.804C342.391 278.708 342.245 278.617 342.089 278.518C341.903 278.398 341.708 278.27 341.516 278.144C341.386 278.059 341.261 277.979 341.129 277.892C340.922 277.757 340.709 277.616 340.497 277.474C340.367 277.389 340.24 277.305 340.108 277.217C339.874 277.06 339.632 276.897 339.391 276.735C339.28 276.66 339.172 276.588 339.059 276.513C338.787 276.329 338.508 276.14 338.228 275.951C338.14 275.891 338.055 275.833 337.966 275.774C337.608 275.53 337.244 275.282 336.876 275.031C327.543 268.658 315.154 259.935 310.401 260.98C304.097 262.366 290.668 290.902 287.927 295.889C285.985 299.424 278.673 306.285 274.58 309.982C274.396 310.085 274.227 310.223 274.098 310.414C273.344 311.091 272.727 311.637 272.318 311.996L263.435 310.986C262.597 310.776 261.796 310.674 261.086 310.771C260.612 310.835 260.178 310.987 259.799 311.253C259.611 311.386 259.435 311.547 259.275 311.74C259.25 311.769 259.233 311.812 259.209 311.844L256.323 311.516C255.596 311.333 254.955 311.405 254.725 312.27C254.495 313.134 255.014 313.521 255.734 313.731L258.394 314.911C258.599 316.472 259.923 317.298 261.625 317.796L270.942 321.928L270.616 323.152C270.415 323.912 270.765 324.668 271.401 324.841L274.192 325.6C274.714 325.742 275.249 325.434 275.542 324.904L275.913 325.013C274.418 326.547 273.781 328.704 274.627 331.573C277.916 342.731 267.706 344.023 271.321 351.853C278.482 367.361 283.816 357.394 298.257 373.855C300.511 376.428 303.07 378.852 305.828 381.13ZM290.822 314.87C291.412 314.414 292.068 313.855 292.749 313.242C293.165 314.234 293.678 315.058 294.268 315.737L290.822 314.87ZM327.323 318.596C329.564 317.061 333.15 313.464 335.621 310.876C335.89 311.401 336.129 311.938 336.346 312.483C332.424 317.219 327.81 321.982 327.81 321.982C328.089 322.933 328.44 323.742 328.844 324.433L317.64 321.615C321.471 321.581 325.421 319.899 327.323 318.596ZM309.263 316.418C310.046 318.25 311.171 319.503 312.488 320.32L304.083 318.206C306.028 317.819 307.854 317.13 309.263 316.418ZM299.756 342.091C300.836 337.691 300.711 334.493 300.02 332.066L330.589 341.006C327.949 344.296 325.439 346.602 324.642 347.305C324.636 347.311 324.628 347.317 324.621 347.323C324.547 347.389 324.486 347.442 324.445 347.477C324.401 347.514 324.38 347.533 324.38 347.533C324.372 347.529 324.365 347.527 324.358 347.524C324.062 347.391 323.761 347.269 323.459 347.16C323.352 347.122 323.246 347.091 323.14 347.056C322.934 346.986 322.729 346.917 322.521 346.857C322.397 346.822 322.274 346.792 322.151 346.76C321.958 346.71 321.766 346.659 321.573 346.615C321.45 346.588 321.327 346.564 321.205 346.54C321.011 346.5 320.817 346.462 320.623 346.43C320.51 346.411 320.398 346.395 320.285 346.378C320.082 346.347 319.882 346.319 319.682 346.295C319.587 346.283 319.492 346.274 319.398 346.264C319.179 346.241 318.964 346.22 318.751 346.203C318.684 346.198 318.617 346.193 318.551 346.189C318.311 346.172 318.079 346.16 317.85 346.151C317.813 346.15 317.776 346.148 317.74 346.147C317.479 346.138 317.227 346.134 316.985 346.133H316.983C315.191 346.128 313.945 346.317 313.945 346.317C309.542 341.606 299.756 342.091 299.756 342.091Z" fill="black"/>
<path d="M334.625 270.718V263.582H313.129C310.724 267.554 309.355 270.314 308.665 271.574C305.924 276.584 292.495 288.25 292.495 288.25C295.784 297.689 307.159 293.704 310.842 291.17C314.526 288.635 321.861 280.482 321.861 280.482C322.213 280.448 338.69 268.893 334.625 270.718Z" fill="#D89371"/>
<path d="M351.106 273.828V263.582H331.557C327.91 269.233 326.003 273.118 325.146 274.684C322.405 279.694 308.977 291.36 308.977 291.36C312.265 300.799 323.64 296.814 327.323 294.279C331.008 291.745 338.342 283.592 338.342 283.592C338.695 283.558 355.171 272.003 351.106 273.828Z" fill="#D89371"/>
<path d="M363.101 280.15V263.583H350.353C344.855 272.663 342.316 278.911 341.355 281.007C339.059 286.017 327.809 297.683 327.809 297.683C330.564 307.122 340.091 303.137 343.178 300.603C346.265 298.068 352.409 289.915 352.409 289.915C352.704 289.878 366.507 278.325 363.101 280.15Z" fill="#D89371"/>
<path d="M271.757 288.146C271.757 288.146 285.187 276.481 287.927 271.47C290.668 266.46 304.097 237.788 310.401 236.397C316.704 235.006 336.437 250.872 344.659 255.603C352.881 260.336 376.177 254.796 382.207 262.298C388.236 269.8 398.925 288.727 408.791 309.326C418.658 329.925 424.688 352.193 430.443 362.492C436.198 372.791 443.598 384.204 460.59 408.699C477.584 433.194 519.243 497.773 519.243 497.773H422.497C422.497 497.773 398.104 423.451 384.675 403.689C371.247 383.925 362.202 384.204 350.965 380.585C339.728 376.966 312.699 366.341 298.258 349.803C283.817 333.265 278.482 343.279 271.322 327.697C267.707 319.831 277.917 318.532 274.628 307.322C271.34 296.112 290.364 295.646 295.783 301.254C298.291 303.849 302.265 307.627 299.757 317.884C299.757 317.884 309.543 317.397 313.946 322.13C313.946 322.13 319.721 321.234 324.38 323.353C324.38 323.353 338.358 311.552 338.084 298.749C337.809 285.945 334.239 279.853 313.946 270.078C313.946 270.078 306.647 279.821 301.125 280.377C301.125 280.377 293.79 288.53 290.106 291.065C286.42 293.599 275.047 297.583 271.757 288.146Z" fill="#EDB08E"/>
<mask id="mask0_51_629" style="mask-type:luminance" maskUnits="userSpaceOnUse" x="270" y="236" width="250" height="262">
<path d="M271.757 288.146C271.757 288.146 285.187 276.481 287.927 271.47C290.668 266.46 304.097 237.788 310.401 236.397C316.704 235.006 336.437 250.872 344.659 255.603C352.881 260.336 376.177 254.796 382.207 262.298C388.236 269.8 398.925 288.727 408.791 309.326C418.658 329.925 424.688 352.193 430.443 362.492C436.198 372.791 443.598 384.204 460.59 408.699C477.584 433.194 519.243 497.773 519.243 497.773H422.497C422.497 497.773 398.104 423.451 384.675 403.689C371.247 383.925 362.202 384.204 350.965 380.585C339.728 376.966 312.699 366.341 298.258 349.803C283.817 333.265 278.482 343.279 271.322 327.697C267.707 319.831 277.917 318.532 274.628 307.322C271.34 296.112 290.364 295.646 295.783 301.254C298.291 303.849 302.265 307.627 299.757 317.884C299.757 317.884 309.543 317.397 313.946 322.13C313.946 322.13 319.721 321.234 324.38 323.353C324.38 323.353 338.358 311.552 338.084 298.749C337.809 285.945 334.239 279.853 313.946 270.078C313.946 270.078 306.647 279.821 301.125 280.377C301.125 280.377 293.79 288.53 290.106 291.065C286.42 293.599 275.047 297.583 271.757 288.146Z" fill="white"/>
</mask>
<g mask="url(#mask0_51_629)">
<path opacity="0.1" d="M411.751 336.726L403.229 333.975C403.196 333.858 403.161 333.742 403.124 333.626C403.088 333.514 403.049 333.405 403.01 333.295C402.955 333.137 402.899 332.98 402.836 332.828C402.789 332.711 402.733 332.597 402.68 332.483C402.616 332.343 402.554 332.2 402.484 332.064C402.361 331.828 402.23 331.6 402.09 331.38C402.027 331.282 401.957 331.191 401.891 331.096C401.797 330.961 401.705 330.827 401.605 330.699C401.532 330.606 401.452 330.516 401.374 330.426C401.271 330.306 401.168 330.188 401.06 330.075C400.977 329.99 400.893 329.909 400.807 329.828C400.692 329.719 400.574 329.613 400.452 329.511C400.364 329.437 400.277 329.365 400.186 329.296C400.054 329.196 399.919 329.102 399.781 329.012C399.691 328.952 399.603 328.892 399.51 328.836C399.353 328.742 399.19 328.658 399.026 328.575C398.945 328.535 398.867 328.489 398.783 328.452C398.531 328.337 398.274 328.234 398.007 328.148L336.726 308.363C336.768 307.624 336.41 306.952 335.786 306.737L332.007 305.438C331.346 305.209 330.61 305.572 330.215 306.261L262.284 284.331C262.338 283.652 262.03 283.029 261.46 282.832L258.403 281.78C257.708 281.541 256.917 282.024 256.638 282.859L256.189 284.205L245.008 282.187C243.477 281.693 242.039 281.547 240.938 282.221C240.684 282.377 240.454 282.591 240.239 282.84L237.047 282.264C236.249 282.007 235.53 282.041 235.213 282.991C234.896 283.943 235.448 284.414 236.234 284.701L239.114 286.214C239.231 287.976 240.65 288.996 242.51 289.676L252.597 294.976L252.148 296.322C251.869 297.158 252.208 298.029 252.903 298.268L255.959 299.32C256.532 299.518 257.163 299.22 257.527 298.645L324.579 323.158C324.48 323.949 324.848 324.691 325.509 324.918L329.288 326.218C329.912 326.433 330.599 326.12 331.007 325.506L391.511 347.625C394.088 348.567 396.884 347.944 399.145 346.221L401.556 347.102L407.558 349.296C410.461 350.358 413.8 348.351 414.97 344.839C416.142 341.331 414.691 337.676 411.751 336.726Z" fill="black"/>
</g>
<g opacity="0.1">
<path d="M355.37 374.369C348.801 372.088 327.011 364.313 305.828 357.108C320.748 369.486 341.48 377.531 350.964 380.586C362.201 384.205 371.246 383.926 384.674 403.69C398.104 423.453 422.496 497.774 422.496 497.774H429.591C429.591 497.774 402.509 420.576 389.08 399.272C375.651 377.969 366.607 378.269 355.37 374.369Z" fill="black"/>
</g>
<path d="M408.391 336.507L421.345 340.313C424.309 341.184 427.514 338.964 428.462 335.384C429.41 331.804 427.733 328.251 424.739 327.495L411.654 324.188L408.391 336.507Z" fill="#7F7F7F"/>
<path d="M408.391 336.507L421.345 340.313C424.309 341.184 427.514 338.964 428.462 335.384C429.41 331.804 427.733 328.251 424.739 327.495L411.654 324.188L408.391 336.507Z" fill="#7F7F7F"/>
<path d="M408.391 336.507L421.345 340.313C424.309 341.184 427.514 338.964 428.462 335.384C429.41 331.804 427.733 328.251 424.739 327.495L411.654 324.188L408.391 336.507Z" fill="#7F7F7F"/>
<path d="M418.757 332.734C419.39 330.343 419.264 327.962 418.549 325.93L411.652 324.188L408.39 336.507L415.216 338.513C416.839 337.12 418.124 335.124 418.757 332.734Z" fill="#666666"/>
<path d="M246.31 286.96L250.1 288.65L251.081 284.947L246.967 284.476C246.156 284.271 245.44 284.351 245.183 285.321C244.927 286.291 245.506 286.725 246.31 286.96Z" fill="#7F7F7F"/>
<path d="M252.885 291.519L264.537 296.712L267.552 285.327L254.907 283.882C252.414 283.252 250.214 283.497 249.425 286.479C248.634 289.461 250.416 290.793 252.885 291.519Z" fill="#7F7F7F"/>
<path d="M265.856 291.732L267.552 285.327L254.907 283.882C252.414 283.252 250.214 283.498 249.425 286.479C249.355 286.74 249.33 286.973 249.299 287.209L265.856 291.732Z" fill="#666666"/>
<path d="M266.626 298.963L405.225 339.686C409.818 341.035 414.784 337.596 416.253 332.049C417.722 326.501 415.124 320.996 410.484 319.823L270.472 284.441L266.626 298.963Z" fill="#7F7F7F"/>
<path d="M416.623 329.836C416.984 325.108 414.503 320.84 410.484 319.824L270.472 284.442L269.12 289.544L416.623 329.836Z" fill="#666666"/>
<path d="M359.309 316.494C358.942 317.879 359.734 319.306 361.091 319.704L406.237 332.968C407.814 333.432 409.519 332.251 410.023 330.347C410.528 328.442 409.636 326.552 408.043 326.15L362.437 314.625C361.066 314.279 359.676 315.11 359.309 316.494Z" fill="#FBB03B"/>
<path d="M343.19 301.441L347.043 302.493C347.834 302.709 348.271 303.654 348.019 304.605L343.67 321.028C343.418 321.978 342.573 322.573 341.782 322.358L337.929 321.305C337.138 321.089 336.701 320.144 336.952 319.193L341.302 302.769C341.555 301.821 342.4 301.225 343.19 301.441Z" fill="#FBB03B"/>
<path d="M268.249 282.606L271.365 283.457C272.075 283.651 272.466 284.499 272.241 285.351L268.605 299.079C268.379 299.93 267.621 300.465 266.912 300.271L263.796 299.419C263.086 299.225 262.695 298.378 262.921 297.526L266.556 283.799C266.782 282.946 267.54 282.412 268.249 282.606Z" fill="#FBB03B"/>
<path d="M302.2 317.925C300.736 317.842 299.756 317.884 299.756 317.884C302.264 307.627 298.289 303.848 295.782 301.253C290.363 295.645 271.338 296.111 274.627 307.322C277.916 318.532 267.706 319.831 271.321 327.697C278.482 343.279 283.816 333.265 298.257 349.803C299.483 351.206 300.809 352.56 302.2 353.876V317.925Z" fill="#EDB08E"/>
<path d="M302.2 245.28C296.2 254.554 289.736 268.163 287.927 271.47C285.186 276.48 271.757 288.146 271.757 288.146C275.046 297.584 286.42 293.6 290.104 291.065C293.788 288.53 301.123 280.377 301.123 280.377C301.474 280.342 301.835 280.257 302.198 280.15L302.2 245.28Z" fill="#EDB08E"/>
<path opacity="0.1" d="M336.876 250.514C337.128 250.687 345.731 258.247 365.738 266.737C385.745 275.227 364.227 257.911 364.227 257.911L364.226 257.91C356.63 257.767 348.765 257.965 344.66 255.602C342.639 254.44 339.92 252.602 336.876 250.514Z" fill="black"/>
<path opacity="0.1" d="M313.945 270.078C313.945 270.078 311.427 267.852 310.513 264.233C310.513 264.233 309.885 270.367 311.799 272.682L313.945 270.078Z" fill="black"/>
<path opacity="0.1" d="M271.321 327.697C271.321 327.697 274.337 319.666 281.462 319.831C281.462 319.831 272.799 324.353 272.06 329.226L271.321 327.697Z" fill="black"/>
<path d="M177.459 218.906C162.027 222.427 153.348 231.355 150.228 235.185C149.998 235.461 149.773 235.747 149.551 236.045C149.106 236.635 148.885 236.977 148.885 236.977C148.885 236.977 139.22 238.602 135.9 244.172C135.9 244.172 130.07 244.537 125.956 247.607C125.956 247.607 120.252 244.587 115.125 239.493C100.675 260.001 97.3847 288.613 107.203 311.814C108.735 311.002 110.294 310.18 111.885 309.255C122.114 303.305 146.321 287.117 156.993 267.851C165.699 252.135 172.16 254.987 176.283 247.469C176.284 247.468 176.285 247.467 176.287 247.466C180.883 242.536 181.939 238.208 192.104 232.093C197.586 228.797 191.098 215.795 177.459 218.906Z" fill="#EDB08E"/>
<mask id="mask1_51_629" style="mask-type:luminance" maskUnits="userSpaceOnUse" x="101" y="218" width="94" height="94">
<path d="M177.459 218.906C162.027 222.427 153.348 231.355 150.228 235.185C149.998 235.461 149.773 235.747 149.551 236.045C149.106 236.635 148.885 236.977 148.885 236.977C148.885 236.977 139.22 238.602 135.9 244.172C135.9 244.172 130.07 244.537 125.956 247.607C125.956 247.607 120.252 244.587 115.125 239.493C100.675 260.001 97.3847 288.613 107.203 311.814C108.735 311.002 110.294 310.18 111.885 309.255C122.114 303.305 146.321 287.117 156.993 267.851C165.699 252.135 172.16 254.987 176.283 247.469C176.284 247.468 176.285 247.467 176.287 247.466C180.883 242.536 181.939 238.208 192.104 232.093C197.586 228.797 191.098 215.795 177.459 218.906Z" fill="white"/>
</mask>
<g mask="url(#mask1_51_629)">
<path opacity="0.1" d="M185.027 224.446C178.086 226.509 170.778 232.318 172.254 233.991C173.729 235.665 180.582 242.103 182.387 240.183C184.191 238.263 193.867 234.27 191.346 229.798C188.823 225.324 187.027 223.851 185.027 224.446Z" fill="white"/>
</g>
<mask id="mask2_51_629" style="mask-type:luminance" maskUnits="userSpaceOnUse" x="101" y="218" width="94" height="94">
<path d="M177.459 218.906C162.027 222.427 153.348 231.355 150.228 235.185C149.998 235.461 149.773 235.747 149.551 236.045C149.106 236.635 148.885 236.977 148.885 236.977C148.885 236.977 139.22 238.602 135.9 244.172C135.9 244.172 130.07 244.537 125.956 247.607C125.956 247.607 120.252 244.587 115.125 239.493C100.675 260.001 97.3847 288.613 107.203 311.814C108.735 311.002 110.294 310.18 111.885 309.255C122.114 303.305 146.321 287.117 156.993 267.851C165.699 252.135 172.16 254.987 176.283 247.469C176.284 247.468 176.285 247.467 176.287 247.466C180.883 242.536 181.939 238.208 192.104 232.093C197.586 228.797 191.098 215.795 177.459 218.906Z" fill="white"/>
</mask>
<g mask="url(#mask2_51_629)">
<g opacity="0.1">
<path d="M165.032 244.393C166.313 244.474 167.51 244.827 168.664 245.276C169.811 245.739 170.903 246.329 171.926 247.025C172.949 247.72 173.901 248.524 174.757 249.428C175.604 250.341 176.379 251.334 176.935 252.509C175.753 252.005 174.716 251.392 173.69 250.781C172.672 250.159 171.688 249.519 170.717 248.855C169.746 248.192 168.789 247.509 167.838 246.787C166.892 246.052 165.941 245.311 165.032 244.393Z" fill="black"/>
</g>
</g>
<path opacity="0.1" d="M62.7089 390.454C58.0494 425.067 49.2681 476.639 45.717 497.773H58.7435C63.1189 461.878 76.307 357.402 83.7476 339.075C91.3574 320.328 98.887 316.221 107.205 311.815C108.738 311.003 110.296 310.181 111.887 309.256C116.829 306.382 125.031 301.115 133.393 294.271C108.539 303.806 91.4702 311.273 82.9569 319.829C77.9687 324.841 68.4944 347.492 62.7089 390.454Z" fill="black"/>
</g>
<defs>
<clipPath id="clip0_51_629">
<rect width="500" height="500" fill="white"/>
</clipPath>
</defs>
</svg>
